<?xml version="1.0" encoding="UTF-8" standalone="no"?>
<!DOCTYPE svg PUBLIC "-//W3C//DTD SVG 1.1//EN" "http://www.w3.org/Graphics/SVG/1.1/DTD/svg11.dtd">
<svg width="100%" height="100%" viewBox="0 0 24 24" version="1.1" xmlns="http://www.w3.org/2000/svg" xmlns:xlink="http://www.w3.org/1999/xlink" xml:space="preserve" xmlns:serif="http://www.serif.com/" style="fill-rule:evenodd;clip-rule:evenodd;stroke-linecap:round;stroke-linejoin:round;stroke-miterlimit:1.5;">
    <g id="Gradient">
        <g id="Active">
            <g id="Edge" transform="matrix(0.803177,0,0,0.798415,2.534329,2.592353)">
                <path d="M23.076,6.28L23.076,17.597C23.076,20.706 20.567,23.23 17.476,23.23L6.277,23.23C3.187,23.23 0.678,20.706 0.678,17.597L0.678,6.28C0.678,3.171 3.187,0.647 6.277,0.647L17.476,0.647C20.567,0.647 23.076,3.171 23.076,6.28Z" style="fill:none;stroke:rgb(87,160,255);stroke-width:2.08px;"/>
            </g>
            <g id="Dots">
                <path d="M6.747,3.635L6.716,20.888C6.716,20.888 3.081,20.58 3.081,16.082L3.081,7.949C3.081,7.949 2.865,4.775 6.747,3.635Z" style="fill:rgb(87,160,255);stroke:rgb(87,160,255);stroke-width:0.63px;"/>
                <g transform="matrix(1.347938,0,0,1.322165,-5.925962,-3.392105)">
                    <circle cx="9.535" cy="6.886" r="1.494" style="fill:rgb(87,160,255);stroke:rgb(87,160,255);stroke-width:0.47px;"/>
                </g>
                <g transform="matrix(1.347938,0,0,1.322165,-5.925962,0.920292)">
                    <circle cx="9.535" cy="6.886" r="1.494" style="fill:rgb(87,160,255);stroke:rgb(87,160,255);stroke-width:0.47px;"/>
                </g>
                <g transform="matrix(0.843748,0,0,0.851082,3.275473,1.986534)">
                    <circle cx="9.535" cy="6.886" r="1.494" style="fill:rgb(87,160,255);stroke:rgb(87,160,255);stroke-width:0.75px;"/>
                </g>
                <g transform="matrix(1,0,0,1,0.630374,0.317927)">
                    <path d="M11.236,20.821L10.145,20.821C10.089,20.725 10.06,20.615 10.06,20.504C10.06,20.153 10.343,19.868 10.69,19.868C11.038,19.868 11.321,20.153 11.321,20.504C11.321,20.615 11.292,20.725 11.236,20.821Z" style="fill:rgb(87,160,255);stroke:rgb(87,160,255);stroke-width:1.67px;"/>
                </g>
                <g transform="matrix(1,0,0,-1,0.630374,24.080928)">
                    <path d="M11.236,20.821L10.145,20.821C10.089,20.725 10.06,20.615 10.06,20.504C10.06,20.153 10.343,19.868 10.69,19.868C11.038,19.868 11.321,20.153 11.321,20.504C11.321,20.615 11.292,20.725 11.236,20.821Z" style="fill:rgb(87,160,255);stroke:rgb(87,160,255);stroke-width:1.67px;"/>
                </g>
                <g transform="matrix(0.324757,0,0,0.319847,11.605394,3.384396)">
                    <circle cx="9.535" cy="6.886" r="1.494" style="fill:rgb(87,160,255);stroke:rgb(87,160,255);stroke-width:1.96px;"/>
                </g>
                <g transform="matrix(0.324757,0,0,0.319847,11.605394,7.863674)">
                    <circle cx="9.535" cy="6.886" r="1.494" style="fill:rgb(87,160,255);stroke:rgb(87,160,255);stroke-width:1.96px;"/>
                </g>
                <g transform="matrix(0.324757,0,0,0.319847,11.605394,12.369448)">
                    <circle cx="9.535" cy="6.886" r="1.494" style="fill:rgb(87,160,255);stroke:rgb(87,160,255);stroke-width:1.96px;"/>
                </g>
                <g transform="matrix(0.324757,0,0,0.319847,11.605394,16.805902)">
                    <circle cx="9.535" cy="6.886" r="1.494" style="fill:rgb(87,160,255);stroke:rgb(87,160,255);stroke-width:1.96px;"/>
                </g>
                <g transform="matrix(0.843748,0,0,0.851082,3.275473,6.383868)">
                    <circle cx="9.535" cy="6.886" r="1.494" style="fill:rgb(87,160,255);stroke:rgb(87,160,255);stroke-width:0.75px;"/>
                </g>
                <g transform="matrix(0.843748,0,0,0.851082,3.275473,10.779285)">
                    <circle cx="9.535" cy="6.886" r="1.494" style="fill:rgb(87,160,255);stroke:rgb(87,160,255);stroke-width:0.75px;"/>
                </g>
                <g transform="matrix(1.347938,0,0,1.322165,-5.925962,5.297436)">
                    <circle cx="9.535" cy="6.886" r="1.494" style="fill:rgb(87,160,255);stroke:rgb(87,160,255);stroke-width:0.47px;"/>
                </g>
                <g transform="matrix(1.347938,0,0,1.322165,-5.925962,9.608354)">
                    <circle cx="9.535" cy="6.886" r="1.494" style="fill:rgb(87,160,255);stroke:rgb(87,160,255);stroke-width:0.47px;"/>
                </g>
            </g>
        </g>
    </g>
</svg>
